<svg xmlns="http://www.w3.org/2000/svg" width="77" height="59" viewBox="0 0 77 59" version="1.1"><path d="M 19 22 L 19 37 21 37 L 23 37 23 26 L 23 15 23.979 15 C 24.517 15, 28.082 17.279, 31.900 20.065 L 38.842 25.131 46.421 19.526 L 54 13.921 54 25.530 L 54 37.139 56.250 36.820 L 58.500 36.500 58.777 21.750 L 59.053 7 57.041 7 L 55.028 7 46.848 12.992 L 38.668 18.984 35.584 16.651 C 33.888 15.368, 30.196 12.672, 27.381 10.659 L 22.261 7 20.631 7 L 19 7 19 22" stroke="none" fill="#f14336" fill-rule="evenodd"/><path d="M 1.232 23.750 L 1.500 47.500 17.217 47.775 L 32.934 48.050 32.717 51.775 L 32.500 55.500 39 55.500 L 45.500 55.500 45.809 51.776 L 46.118 48.051 61.309 47.776 L 76.500 47.500 76.768 23.750 L 77.036 -0 39 -0 L 0.964 -0 1.232 23.750 M 7 23.500 L 7 42 39 42 L 71 42 71 23.500 L 71 5 39 5 L 7 5 7 23.500" stroke="none" fill="#38761d" fill-rule="evenodd"/><path d="M 1.232 23.750 L 1.500 47.500 17.217 47.775 L 32.934 48.050 32.717 51.775 L 32.500 55.500 39 55.500 L 45.500 55.500 45.809 51.776 L 46.118 48.051 61.309 47.776 L 76.500 47.500 76.768 23.750 L 77.036 -0 39 -0 L 0.964 -0 1.232 23.750 M 7 23.500 L 7 42 39 42 L 71 42 71 23.500 L 71 5 39 5 L 7 5 7 23.500" stroke="none" fill="#38761d" fill-rule="evenodd"/><path d="M 0.223 29.262 L 0 59.023 38.750 58.762 L 77.500 58.500 77.535 29 L 77.570 -0.500 77.035 23.500 L 76.500 47.500 61.309 47.776 L 46.118 48.051 45.809 51.776 L 45.500 55.500 39 55.500 L 32.500 55.500 32.717 51.775 L 32.934 48.050 17.217 47.775 L 1.500 47.500 0.973 23.500 L 0.445 -0.500 0.223 29.262 M 0.442 30 L 0.442 59.500 0.748 44.750 C 0.916 36.637, 0.916 23.362, 0.748 15.250 L 0.442 0.500 0.442 30 M 7 23.500 L 7 42 39 42 L 71 42 71 23.500 L 71 5 39 5 L 7 5 7 23.500 M 19 22 L 19 37 21 37 L 23 37 23 26 L 23 15 23.979 15 C 24.517 15, 28.082 17.279, 31.900 20.065 L 38.842 25.131 46.421 19.526 L 54 13.921 54 25.530 L 54 37.139 56.250 36.820 L 58.500 36.500 58.777 21.750 L 59.053 7 57.041 7 L 55.028 7 46.848 12.992 L 38.668 18.984 35.584 16.651 C 33.888 15.368, 30.196 12.672, 27.381 10.659 L 22.261 7 20.631 7 L 19 7 19 22" stroke="none" fill="#f2f2f1" fill-rule="evenodd"/></svg>