<svg xmlns="http://www.w3.org/2000/svg" width="48" height="80" viewBox="0 0 48 80" version="1.1"><path d="M 3.174 3.314 L 1 5.629 1 39.640 L 1 73.651 3.314 75.826 L 5.629 78 22.140 78 L 38.651 78 40.826 75.686 L 43 73.371 43 52.092 L 43 30.813 44.753 30.354 L 46.506 29.896 46.142 25.198 L 45.778 20.500 44.389 19.700 L 43 18.901 43 12.125 L 43 5.349 40.686 3.174 L 38.371 1 21.860 1 L 5.349 1 3.174 3.314 M 6.827 3.674 L 5.155 4.117 4.077 7.208 L 3 10.298 3.014 39.899 L 3.027 69.500 3.614 71.687 L 4.200 73.874 7.249 74.937 L 10.298 76 22.399 75.986 C 29.055 75.979, 35.484 75.709, 36.687 75.386 L 38.874 74.800 39.937 71.751 L 41 68.702 40.986 39.101 L 40.973 9.500 40.386 7.313 L 39.800 5.126 36.751 4.063 L 33.702 3 21.101 3.116 C 14.170 3.180, 7.747 3.431, 6.827 3.674 M 15.134 37.959 L 9.831 46.917 10.474 47.959 L 11.118 49 22 49 L 32.882 49 33.526 47.959 L 34.169 46.917 28.866 37.959 L 23.562 29 22 29 L 20.438 29 15.134 37.959 M 21 37.583 L 21 42.167 22.250 41.750 L 23.500 41.334 23.839 39.588 C 24.025 38.628, 23.904 36.752, 23.570 35.421 L 22.962 33 21.981 33 L 21 33 21 37.583 M 21 45.500 L 21 47 22 47 L 23 47 23 45.500 L 23 44 22 44 L 21 44 21 45.500" stroke="none" fill="#2f5419" fill-rule="evenodd"/><path d="M 0 40.018 L 0 80.036 24.250 79.768 L 48.500 79.500 48.761 39.750 L 49.023 0 24.511 0 L 0 0 0 40.018 M 0.231 40.500 L 0.263 80.500 0.882 77.135 L 1.500 73.770 3.405 75.885 L 5.310 78 21.981 78 L 38.651 78 40.826 75.686 L 43 73.371 43 52.092 L 43 30.813 44.753 30.354 L 46.506 29.896 46.142 25.198 L 45.778 20.500 44.389 19.700 L 43 18.901 43 12.125 L 43 5.349 40.686 3.174 L 38.371 1 21.841 1 L 5.310 1 3.414 3.095 L 1.517 5.191 0.858 2.845 L 0.199 0.500 0.231 40.500 M 6.827 3.674 L 5.155 4.117 4.077 7.208 L 3 10.298 3.014 39.899 L 3.027 69.500 3.614 71.687 L 4.200 73.874 7.249 74.937 L 10.298 76 22.399 75.986 C 29.055 75.979, 35.484 75.709, 36.687 75.386 L 38.874 74.800 39.937 71.751 L 41 68.702 40.986 39.101 L 40.973 9.500 40.386 7.313 L 39.800 5.126 36.751 4.063 L 33.702 3 21.101 3.116 C 14.170 3.180, 7.747 3.431, 6.827 3.674 M 15.134 37.959 L 9.831 46.917 10.474 47.959 L 11.118 49 22 49 L 32.882 49 33.526 47.959 L 34.169 46.917 28.866 37.959 L 23.562 29 22 29 L 20.438 29 15.134 37.959 M 21 37.583 L 21 42.167 22.250 41.750 L 23.500 41.334 23.839 39.588 C 24.025 38.628, 23.904 36.752, 23.570 35.421 L 22.962 33 21.981 33 L 21 33 21 37.583 M 21 45.500 L 21 47 22 47 L 23 47 23 45.500 L 23 44 22 44 L 21 44 21 45.500" stroke="none" fill="#ecf0ea" fill-rule="evenodd"/></svg>