<?xml version="1.0" standalone="no"?>
<!DOCTYPE svg PUBLIC "-//W3C//DTD SVG 20010904//EN"
 "http://www.w3.org/TR/2001/REC-SVG-20010904/DTD/svg10.dtd">
<svg version="1.0" xmlns="http://www.w3.org/2000/svg"
 width="107.000000pt" height="91.000000pt" viewBox="0 0 107.000000 91.000000"
 preserveAspectRatio="xMidYMid meet">
<metadata>
Created by potrace 1.16, written by Peter Selinger 2001-2019
</metadata>
<g transform="translate(0.000000,91.000000) scale(0.100000,-0.100000)"
fill="#000000" stroke="none">
<path d="M50 840 c-13 -8 -15 -61 -18 -360 -2 -235 1 -357 8 -370 10 -19 21
-20 216 -20 l206 0 -6 -27 c-4 -16 -9 -36 -12 -45 -5 -16 4 -18 86 -18 l92 0
-6 45 -7 45 208 2 208 3 3 364 c2 260 -1 368 -9 377 -9 12 -96 14 -483 14
-279 0 -477 -4 -486 -10z m910 -375 l0 -305 -425 0 -425 0 0 305 0 305 425 0
425 0 0 -305z"/>
<path d="M533 753 c-340 -3 -393 -5 -393 -18 0 -12 16 -15 80 -15 l80 0 0 -35
0 -35 315 0 315 0 0 55 c0 30 -1 54 -2 53 -2 -2 -180 -4 -395 -5z"/>
</g>
</svg>
